<svg width="161" height="24" viewBox="0 0 161 24" fill="none" xmlns="http://www.w3.org/2000/svg">
<path d="M19.4356 6.35147H20.3251L22.8602 3.90861L22.9847 2.87147C21.5325 1.63629 19.7774 0.778251 17.8854 0.378412C15.9933 -0.0214284 14.0267 0.0501294 12.1713 0.586325C10.3159 1.12252 8.63299 2.10565 7.28153 3.44285C5.93008 4.78005 4.95469 6.42717 4.44751 8.22861C4.72993 8.11707 5.04278 8.09898 5.33701 8.17718L10.4072 7.37147C10.4072 7.37147 10.6651 6.96004 10.7986 6.98576C11.8849 5.83604 13.3863 5.12995 14.9952 5.01204C16.6042 4.89412 18.1991 5.3733 19.4534 6.35147H19.4356Z" fill="#EA4335"/>
<path d="M26.4717 8.22845C25.889 6.16071 24.6926 4.30183 23.0293 2.87988L19.4713 6.30845C20.2129 6.89231 20.8071 7.6308 21.2093 8.46823C21.6114 9.30566 21.811 10.2202 21.7929 11.1427V11.7513C22.2088 11.7513 22.6206 11.8302 23.0047 11.9836C23.3889 12.1369 23.738 12.3617 24.0321 12.6451C24.3261 12.9284 24.5594 13.2648 24.7185 13.635C24.8777 14.0052 24.9596 14.402 24.9596 14.8027C24.9596 15.2035 24.8777 15.6003 24.7185 15.9705C24.5594 16.3407 24.3261 16.6771 24.0321 16.9604C23.738 17.2438 23.3889 17.4685 23.0047 17.6219C22.6206 17.7752 22.2088 17.8542 21.7929 17.8542H15.4597L14.8281 18.4713V22.1313L15.4597 22.7399H21.7929C23.5615 22.7532 25.2875 22.2175 26.7156 21.2123C28.1438 20.207 29.1982 18.7854 29.723 17.1579C30.2477 15.5304 30.2149 13.7834 29.6294 12.1752C29.0438 10.5671 27.9367 9.18326 26.4717 8.22845Z" fill="#4285F4"/>
<path d="M9.11734 22.7059H15.4506V17.8202H9.11734C8.66612 17.8201 8.2202 17.7265 7.80977 17.5459L6.92027 17.8116L4.3674 20.2545L4.14502 21.1116C5.57661 22.1533 7.32346 22.7134 9.11734 22.7059Z" fill="#34A853"/>
<path d="M9.11753 6.85698C7.40152 6.86686 5.73156 7.39296 4.34089 8.36179C2.95022 9.33062 1.9083 10.6938 1.36065 12.2609C0.812994 13.8281 0.78696 15.5209 1.28618 17.103C1.7854 18.6851 2.78494 20.0774 4.1452 21.0856L7.81885 17.5456C7.35201 17.3423 6.9433 17.033 6.62781 16.644C6.31231 16.2551 6.09944 15.7983 6.00746 15.3126C5.91549 14.827 5.94715 14.3271 6.09973 13.8559C6.25231 13.3847 6.52125 12.9561 6.88349 12.6071C7.24573 12.258 7.69044 11.9989 8.17946 11.8518C8.66849 11.7048 9.18724 11.6743 9.69119 11.7629C10.1951 11.8516 10.6693 12.0567 11.0729 12.3607C11.4765 12.6647 11.7975 13.0586 12.0084 13.5084L15.6821 9.96841C14.911 8.99706 13.9172 8.21076 12.7784 7.67099C11.6396 7.13122 10.3866 6.85262 9.11753 6.85698Z" fill="#FBBC05"/>
<path d="M46.9568 19.2941C45.8664 19.3075 44.7844 19.1087 43.7757 18.7095C42.7669 18.3104 41.8521 17.7192 41.0861 16.9713C40.296 16.2551 39.669 15.3885 39.2448 14.4264C38.8207 13.4644 38.6086 12.4279 38.6222 11.3827C38.6092 10.3376 38.8214 9.30123 39.2456 8.33925C39.6697 7.37728 40.2964 6.51062 41.0861 5.79412C41.8484 5.03846 42.7615 4.4393 43.7704 4.03273C44.7794 3.62616 45.8633 3.42059 46.9568 3.42841C47.9988 3.41503 49.0332 3.60136 49.9998 3.97659C50.9664 4.35182 51.846 4.90845 52.5874 5.61412L51.0041 7.16555C49.9198 6.1558 48.4646 5.60104 46.9568 5.62269C46.1747 5.61344 45.3992 5.76106 44.6794 6.05619C43.9597 6.35131 43.3116 6.78748 42.7762 7.33698C42.2198 7.8689 41.7808 8.50383 41.4858 9.20354C41.1907 9.90325 41.0457 10.6533 41.0594 11.4084C41.0529 12.1549 41.2014 12.8952 41.4963 13.5856C41.7911 14.276 42.2263 14.9025 42.7762 15.4284C43.8777 16.4862 45.3642 17.088 46.9192 17.1056C48.4742 17.1232 49.9749 16.5553 51.1019 15.5227C51.7996 14.7864 52.2277 13.85 52.3205 12.857H46.9835V10.6627H54.5354C54.6096 11.1046 54.6394 11.5524 54.6244 11.9998C54.6713 12.9259 54.5229 13.8515 54.1881 14.7207C53.8533 15.59 53.339 16.3847 52.6763 17.057C51.9396 17.7961 51.0495 18.3774 50.064 18.7629C49.0785 19.1483 48.0198 19.3293 46.9568 19.2941ZM64.5156 17.837C63.5021 18.7731 62.1525 19.2958 60.7486 19.2958C59.3447 19.2958 57.995 18.7731 56.9815 17.837C56.4771 17.3657 56.0798 16.7985 55.8149 16.1714C55.55 15.5443 55.4232 14.8709 55.4427 14.1941C55.4238 13.5174 55.5508 12.8442 55.8157 12.2172C56.0805 11.5902 56.4775 11.0229 56.9815 10.5513C57.9961 9.61707 59.3453 9.09574 60.7486 9.09574C62.1518 9.09574 63.5011 9.61707 64.5156 10.5513C65.0196 11.0229 65.4166 11.5902 65.6815 12.2172C65.9464 12.8442 66.0734 13.5174 66.0545 14.1941C66.0728 14.8716 65.9446 15.5453 65.6782 16.1724C65.4117 16.7995 65.0128 17.3664 64.5067 17.837H64.5156ZM58.6449 16.4055C58.9145 16.683 59.2403 16.9041 59.6021 17.0553C59.964 17.2065 60.3542 17.2845 60.7486 17.2845C61.143 17.2845 61.5332 17.2065 61.895 17.0553C62.2569 16.9041 62.5827 16.683 62.8523 16.4055C63.1462 16.1128 63.3763 15.7663 63.5291 15.3865C63.6819 15.0067 63.7542 14.6013 63.7418 14.1941C63.7549 13.7856 63.6829 13.3787 63.5301 12.9974C63.3774 12.6161 63.1469 12.2682 62.8523 11.9741C62.5791 11.6995 62.2511 11.4811 61.8881 11.3318C61.525 11.1825 61.1344 11.1056 60.7397 11.1056C60.345 11.1056 59.9543 11.1825 59.5913 11.3318C59.2282 11.4811 58.9003 11.6995 58.6271 11.9741C58.3325 12.2682 58.102 12.6161 57.9492 12.9974C57.7965 13.3787 57.7245 13.7856 57.7376 14.1941C57.7264 14.6019 57.8001 15.0077 57.9544 15.3875C58.1087 15.7673 58.3405 16.1135 58.636 16.4055H58.6449ZM76.0969 17.837C75.0835 18.7731 73.7338 19.2958 72.3299 19.2958C70.926 19.2958 69.5764 18.7731 68.5629 17.837C68.0584 17.3657 67.6611 16.7985 67.3962 16.1714C67.1313 15.5443 67.0046 14.8709 67.024 14.1941C67.0051 13.5174 67.1321 12.8442 67.397 12.2172C67.6619 11.5902 68.0589 11.0229 68.5629 10.5513C69.5764 9.61511 70.926 9.09245 72.3299 9.09245C73.7338 9.09245 75.0835 9.61511 76.0969 10.5513C76.601 11.0229 76.9979 11.5902 77.2628 12.2172C77.5277 12.8442 77.6547 13.5174 77.6358 14.1941C77.6552 14.8709 77.5285 15.5443 77.2636 16.1714C76.9987 16.7985 76.6014 17.3657 76.0969 17.837ZM70.2262 16.4055C70.4958 16.683 70.8216 16.9041 71.1834 17.0553C71.5453 17.2065 71.9355 17.2845 72.3299 17.2845C72.7243 17.2845 73.1145 17.2065 73.4764 17.0553C73.8382 16.9041 74.164 16.683 74.4336 16.4055C74.7275 16.1128 74.9576 15.7663 75.1104 15.3865C75.2632 15.0067 75.3355 14.6013 75.3231 14.1941C75.3362 13.7856 75.2642 13.3787 75.1115 12.9974C74.9587 12.6161 74.7282 12.2682 74.4336 11.9741C74.1604 11.6995 73.8325 11.4811 73.4694 11.3318C73.1064 11.1825 72.7157 11.1056 72.321 11.1056C71.9263 11.1056 71.5357 11.1825 71.1726 11.3318C70.8096 11.4811 70.4816 11.6995 70.2084 11.9741C69.9138 12.2682 69.6833 12.6161 69.5306 12.9974C69.3778 13.3787 69.3058 13.7856 69.3189 14.1941C69.3077 14.6019 69.3814 15.0077 69.5357 15.3875C69.69 15.7673 69.9218 16.1135 70.2173 16.4055H70.2262ZM83.7111 23.8713C82.6449 23.9039 81.5994 23.5832 80.749 22.9627C79.994 22.4157 79.3994 21.6891 79.0234 20.8541L81.0515 20.0398C81.2722 20.5389 81.6175 20.9776 82.0566 21.317C82.5267 21.6821 83.1165 21.8736 83.72 21.857C84.1027 21.8794 84.4859 21.8221 84.8435 21.689C85.2012 21.5559 85.5249 21.3501 85.7925 21.0856C86.3284 20.4626 86.593 19.6639 86.5308 18.857V18.1198H86.4508C86.1118 18.5078 85.6837 18.8143 85.2005 19.0152C84.7172 19.216 84.1921 19.3057 83.6666 19.277C82.9988 19.2789 82.3378 19.1474 81.7254 18.8907C81.1129 18.634 80.5624 18.2577 80.1086 17.7856C79.6162 17.3172 79.2274 16.7574 78.966 16.1401C78.7046 15.5228 78.5758 14.8608 78.5876 14.1941C78.5753 13.5236 78.7037 12.8575 78.965 12.236C79.2264 11.6144 79.6154 11.0501 80.1086 10.577C80.5613 10.1029 81.1114 9.72471 81.7239 9.46648C82.3365 9.20825 82.998 9.0756 83.6666 9.07698C84.2324 9.07602 84.7914 9.19605 85.3033 9.42841C85.7461 9.61475 86.1409 9.89276 86.4597 10.2427H86.5397V9.42841H88.7457V18.557C88.8037 19.2791 88.7083 20.0051 88.4651 20.6904C88.2219 21.3757 87.8361 22.006 87.3314 22.5427C86.8506 22.9859 86.2825 23.3318 85.6607 23.56C85.039 23.7882 84.376 23.894 83.7111 23.8713ZM83.8712 17.2884C84.251 17.2965 84.628 17.2238 84.9755 17.0757C85.3229 16.9276 85.6322 16.7075 85.8815 16.4313C86.4303 15.8252 86.7196 15.0409 86.6909 14.237C86.7239 13.4195 86.4347 12.6203 85.8815 11.9998C85.6326 11.7231 85.3234 11.5028 84.9758 11.3546C84.6283 11.2064 84.2511 11.1341 83.8712 11.1427C83.481 11.135 83.0936 11.2074 82.7347 11.3552C82.3758 11.503 82.0537 11.7228 81.7898 11.9998C81.2014 12.598 80.8817 13.3958 80.9003 14.2198C80.8912 14.624 80.9651 15.0259 81.1178 15.4025C81.2704 15.7791 81.4988 16.1229 81.7898 16.4141C82.0524 16.6939 82.3739 16.9165 82.7328 17.0673C83.0916 17.218 83.4797 17.2934 83.8712 17.2884ZM92.6684 4.00269V18.9856H90.3468V4.00269H92.6684ZM99.0372 19.2941C98.3419 19.3113 97.6505 19.1901 97.0061 18.9378C96.3617 18.6856 95.7783 18.3079 95.2924 17.8284C94.7994 17.3524 94.4119 16.7848 94.1535 16.16C93.895 15.5353 93.7711 14.8664 93.7892 14.1941C93.7629 13.5202 93.8777 12.848 94.1268 12.2177C94.3759 11.5874 94.7542 11.0119 95.239 10.5255C95.696 10.0614 96.2485 9.69429 96.8612 9.44779C97.4739 9.2013 98.1333 9.08084 98.7971 9.09412C99.4075 9.08791 100.013 9.20165 100.576 9.42841C101.083 9.62575 101.546 9.91694 101.937 10.2856C102.273 10.598 102.571 10.9459 102.827 11.3227C103.033 11.6408 103.209 11.9765 103.351 12.3256L103.591 12.9084L96.4755 15.7284C96.6907 16.2049 97.0506 16.6074 97.508 16.8828C97.9653 17.1582 98.4984 17.2937 99.0372 17.2713C99.5614 17.2726 100.077 17.1431 100.534 16.8952C100.991 16.6473 101.373 16.2896 101.643 15.857L103.422 17.0141C102.968 17.64 102.387 18.1707 101.715 18.5741C100.914 19.0613 99.9836 19.3116 99.0372 19.2941ZM96.0663 14.0398L100.798 12.1456C100.653 11.8115 100.392 11.5361 100.06 11.3656C99.6887 11.1634 99.2681 11.0599 98.8415 11.0655C98.1176 11.0836 97.4304 11.3762 96.9291 11.8798C96.6291 12.1565 96.3962 12.4935 96.2471 12.8669C96.0979 13.2403 96.0362 13.6408 96.0663 14.0398Z" fill="#5F6368"/>
<path d="M115.751 19.2944C114.764 19.3108 113.783 19.1348 112.868 18.777C111.953 18.4191 111.122 17.8868 110.426 17.2119C109.73 16.5371 109.183 15.7336 108.817 14.8498C108.451 13.966 108.274 13.02 108.297 12.0687C108.274 11.1174 108.451 10.1714 108.817 9.28759C109.183 8.40377 109.73 7.60031 110.426 6.92545C111.122 6.2506 111.953 5.71826 112.868 5.3604C113.783 5.00254 114.764 4.82654 115.751 4.84297C116.75 4.81286 117.744 5.00074 118.657 5.39258C119.57 5.78442 120.38 6.37009 121.026 7.10582L119.745 8.30582C119.271 7.73145 118.663 7.27295 117.971 6.96763C117.278 6.6623 116.521 6.51876 115.76 6.54868C115.027 6.53278 114.299 6.65974 113.619 6.92193C112.939 7.18412 112.321 7.57613 111.802 8.0744C111.262 8.59727 110.84 9.22201 110.563 9.90938C110.286 10.5968 110.16 11.3319 110.192 12.0687C110.16 12.8054 110.286 13.5406 110.563 14.228C110.84 14.9154 111.262 15.5401 111.802 16.063C112.321 16.5612 112.939 16.9532 113.619 17.2154C114.299 17.4776 115.027 17.6046 115.76 17.5887C116.61 17.5979 117.451 17.4223 118.221 17.0751C118.991 16.7278 119.67 16.2178 120.207 15.583L121.488 16.8173C120.818 17.59 119.976 18.2081 119.024 18.6258C117.999 19.082 116.88 19.3105 115.751 19.2944Z" fill="#5F6368"/>
<path d="M124.931 18.9859H123.089V5.14307H124.931V18.9859Z" fill="#5F6368"/>
<path d="M127.937 10.6544C128.902 9.73107 130.206 9.21289 131.566 9.21289C132.926 9.21289 134.231 9.73107 135.195 10.6544C135.667 11.1344 136.036 11.6996 136.28 12.3174C136.524 12.9353 136.639 13.5935 136.619 14.2544C136.639 14.9152 136.524 15.5735 136.28 16.1914C136.036 16.8092 135.667 17.3744 135.195 17.8544C134.231 18.7777 132.926 19.2959 131.566 19.2959C130.206 19.2959 128.902 18.7777 127.937 17.8544C127.465 17.3744 127.097 16.8092 126.852 16.1914C126.608 15.5735 126.493 14.9152 126.514 14.2544C126.493 13.5935 126.608 12.9353 126.852 12.3174C127.097 11.6996 127.465 11.1344 127.937 10.6544ZM129.307 16.7401C129.597 17.0356 129.947 17.2709 130.334 17.4317C130.722 17.5925 131.14 17.6755 131.562 17.6755C131.984 17.6755 132.402 17.5925 132.789 17.4317C133.177 17.2709 133.527 17.0356 133.817 16.7401C134.139 16.4073 134.388 16.0162 134.552 15.5894C134.715 15.1627 134.789 14.7088 134.768 14.2544C134.789 13.7999 134.715 13.3461 134.552 12.9194C134.388 12.4926 134.139 12.1014 133.817 11.7687C133.527 11.4732 133.177 11.2379 132.789 11.0771C132.402 10.9162 131.984 10.8333 131.562 10.8333C131.14 10.8333 130.722 10.9162 130.334 11.0771C129.947 11.2379 129.597 11.4732 129.307 11.7687C128.985 12.1014 128.735 12.4926 128.572 12.9194C128.408 13.3461 128.335 13.7999 128.355 14.2544C128.337 14.708 128.413 15.1606 128.578 15.5858C128.743 16.011 128.993 16.4005 129.316 16.7315L129.307 16.7401Z" fill="#5F6368"/>
<path d="M146.821 18.9858H145.042V17.6744H144.989C144.672 18.1725 144.224 18.5807 143.69 18.8572C143.136 19.1666 142.507 19.3293 141.867 19.3287C141.347 19.3629 140.826 19.2836 140.342 19.0966C139.858 18.9096 139.425 18.6197 139.074 18.2487C138.4 17.4274 138.061 16.3968 138.122 15.3515V9.52295H139.963V15.0258C139.963 16.7915 140.773 17.6744 142.392 17.6744C142.751 17.6852 143.108 17.613 143.433 17.4639C143.758 17.3149 144.041 17.0931 144.259 16.8172C144.737 16.2344 144.991 15.511 144.98 14.7687V9.52295H146.821V18.9858Z" fill="#5F6368"/>
<path d="M153.074 19.2945C152.45 19.2965 151.832 19.168 151.264 18.918C150.696 18.6679 150.191 18.3022 149.783 17.8459C148.861 16.8644 148.367 15.578 148.405 14.2545C148.367 12.931 148.861 11.6446 149.783 10.6631C150.191 10.2068 150.696 9.84109 151.264 9.59102C151.832 9.34095 152.45 9.2125 153.074 9.2145C153.774 9.20385 154.466 9.36302 155.085 9.67735C155.629 9.94119 156.09 10.3408 156.419 10.8345H156.499L156.419 9.52307V5.14307H158.26V18.9859H156.481V17.6745H156.401C156.072 18.1682 155.611 18.5678 155.067 18.8316C154.453 19.1432 153.768 19.3023 153.074 19.2945ZM153.377 17.6745C153.793 17.6803 154.206 17.6008 154.588 17.4412C154.97 17.2816 155.312 17.0456 155.592 16.7488C156.217 16.0625 156.537 15.1663 156.481 14.2545C156.537 13.3427 156.217 12.4465 155.592 11.7602C155.31 11.4618 154.967 11.2234 154.584 11.0602C154.201 10.8971 153.787 10.8128 153.368 10.8128C152.949 10.8128 152.535 10.8971 152.152 11.0602C151.769 11.2234 151.426 11.4618 151.144 11.7602C150.834 12.0978 150.595 12.4911 150.442 12.9176C150.29 13.3442 150.226 13.7956 150.255 14.2459C150.226 14.6963 150.29 15.1477 150.442 15.5742C150.595 16.0008 150.834 16.3941 151.144 16.7316C151.425 17.0337 151.769 17.2743 152.154 17.437C152.539 17.5996 152.956 17.6806 153.377 17.6745Z" fill="#5F6368"/>
</svg>
